<svg xmlns="http://www.w3.org/2000/svg" viewBox="0 0 1440 320"><path fill="#ffc902" fill-opacity="1" d="M0,224L34.3,202.7C68.6,181,137,139,206,117.3C274.3,96,343,96,411,90.7C480,85,549,75,617,80C685.7,85,754,107,823,122.7C891.4,139,960,149,1029,165.3C1097.1,181,1166,203,1234,197.3C1302.9,192,1371,160,1406,144L1440,128L1440,320L1405.7,320C1371.4,320,1303,320,1234,320C1165.7,320,1097,320,1029,320C960,320,891,320,823,320C754.3,320,686,320,617,320C548.6,320,480,320,411,320C342.9,320,274,320,206,320C137.1,320,69,320,34,320L0,320Z"></path></svg>