<svg width="164" height="161" viewBox="0 0 164 161" fill="none" xmlns="http://www.w3.org/2000/svg">
<g filter="url(#filter0_d_1_6)">
<path d="M112.005 77.6374C111.34 73.7251 108.487 70.6858 103.446 68.5195C98.4055 66.3532 91.5642 65.27 82.9227 65.27C77.0509 65.27 72.0931 65.755 68.0493 66.725C64.0055 67.6627 60.9034 68.9721 58.743 70.6534C56.638 72.3348 55.5855 74.2424 55.5855 76.3764C55.4747 78.1547 56.1118 79.7067 57.4966 81.0323C58.9369 82.358 60.9034 83.5058 63.3962 84.4758C65.8889 85.4135 68.7694 86.238 72.0377 86.9493C75.306 87.6283 78.7958 88.2103 82.5073 88.6953L97.7961 90.8292C105.219 91.7992 112.032 93.0925 118.237 94.7092C124.441 96.3258 129.814 98.3143 134.356 100.675C138.899 103.035 142.416 105.816 144.909 109.017C147.457 112.218 148.759 115.887 148.814 120.026C148.759 126.105 146.1 131.375 140.838 135.837C135.631 140.266 128.097 143.71 118.237 146.167C108.432 148.592 96.6051 149.805 82.7565 149.805C69.0187 149.805 57.0535 148.576 46.8609 146.119C36.7237 143.661 28.8023 140.024 23.0967 135.206C17.4464 130.356 8.99879 117.617 8.72182 110.472L53.9237 117.213C54.3115 120.543 51.0432 123.324 53.9237 125.555C56.8596 127.754 60.7649 129.419 65.6396 130.55C70.5697 131.65 76.1369 132.199 82.3411 132.199C88.4345 132.199 93.7246 131.682 98.2116 130.647C102.754 129.613 106.271 128.174 108.764 126.331C111.257 124.488 112.503 122.37 112.503 119.977C112.503 117.746 111.368 115.871 109.097 114.352C106.881 112.832 103.613 111.539 99.2918 110.472C95.0264 109.405 89.7916 108.435 83.5874 107.562L65.058 104.846C50.7108 102.809 39.3827 99.6238 31.0735 95.2912C22.7643 90.9586 18.6374 85.1225 18.6928 77.7829C18.6374 71.7689 21.3795 66.5148 26.9189 62.0205C32.5137 57.5263 40.1859 54.0181 49.9353 51.4962C59.6847 48.9742 70.7636 47.7132 83.172 47.7132C95.8019 47.7132 106.825 48.9742 116.242 51.4962C125.715 54.0181 133.082 57.5263 138.345 62.0205C143.607 66.5148 148.648 81.0323 148.814 86.9493L112.005 77.6374Z" fill="black"/>
<path d="M119.982 71.507C119.317 67.5947 116.464 64.5554 111.423 62.3891C106.382 60.2228 99.5411 59.1396 90.8995 59.1396C85.0277 59.1396 80.0699 59.6246 76.0261 60.5946C71.9823 61.5322 68.8802 62.8417 66.7198 64.523C64.6148 66.2044 63.5623 68.112 63.5623 70.246C63.4515 72.0243 64.0886 73.5763 65.4734 74.9019C66.9137 76.2276 68.8802 77.3754 71.3729 78.3454C73.8657 79.2831 76.7462 80.1075 80.0145 80.8189C83.2828 81.4979 86.7726 82.0799 90.484 82.5649L105.773 84.6988C113.196 85.6688 120.009 86.9621 126.213 88.5788C132.418 90.1954 137.791 92.1839 142.333 94.5442C146.876 96.9045 150.393 99.6852 152.886 102.886C155.434 106.087 156.736 109.757 156.791 113.896C156.736 119.974 154.077 125.244 148.814 129.706C143.607 134.136 136.074 137.579 126.213 140.037C116.409 142.462 104.582 143.674 90.7333 143.674C76.9955 143.674 65.0303 142.446 54.8377 139.988C44.7005 137.531 36.7791 133.894 31.0735 129.076C25.4233 124.226 16.9756 111.487 16.6986 104.341L61.9005 111.083C62.2883 114.413 59.02 117.194 61.9005 119.424C64.8364 121.623 68.7417 123.288 73.6164 124.42C78.5465 125.519 84.1136 126.069 90.3178 126.069C96.4112 126.069 101.701 125.552 106.188 124.517C110.731 123.482 114.248 122.043 116.741 120.2C119.234 118.357 120.48 116.24 120.48 113.847C120.48 111.616 119.345 109.741 117.073 108.221C114.858 106.701 111.589 105.408 107.269 104.341C103.003 103.274 97.7684 102.304 91.5642 101.431L73.0348 98.7152C58.6876 96.6782 47.3595 93.4934 39.0503 89.1608C30.7411 84.8282 26.6142 78.9921 26.6696 71.6525C26.6142 65.6385 29.3562 60.3844 34.8957 55.8901C40.4905 51.3959 48.1627 47.8877 57.9121 45.3657C67.6615 42.8438 78.7404 41.5828 91.1488 41.5828C103.779 41.5828 114.802 42.8438 124.219 45.3657C133.692 47.8877 141.059 51.3959 146.322 55.8901C151.584 60.3844 156.625 74.9019 156.791 80.8189L119.982 71.507Z" fill="#493798"/>
</g>
<defs>
<filter id="filter0_d_1_6" x="4.72182" y="41.5828" width="156.069" height="116.222" filterUnits="userSpaceOnUse" color-interpolation-filters="sRGB">
<feFlood flood-opacity="0" result="BackgroundImageFix"/>
<feColorMatrix in="SourceAlpha" type="matrix" values="0 0 0 0 0 0 0 0 0 0 0 0 0 0 0 0 0 0 127 0" result="hardAlpha"/>
<feOffset dy="4"/>
<feGaussianBlur stdDeviation="2"/>
<feComposite in2="hardAlpha" operator="out"/>
<feColorMatrix type="matrix" values="0 0 0 0 0 0 0 0 0 0 0 0 0 0 0 0 0 0 0.25 0"/>
<feBlend mode="normal" in2="BackgroundImageFix" result="effect1_dropShadow_1_6"/>
<feBlend mode="normal" in="SourceGraphic" in2="effect1_dropShadow_1_6" result="shape"/>
</filter>
</defs>
</svg>
